#!OML:ASF E:/inclinewalkrobotboard/Project1/Captureday1/Session1/subject1.ASF
:FULLY-SPECIFIED
:DEGREES
38
root 0 0 0 9.91044879336851 67.12041294513682 -1.3572211440889177
lowerback -8.031936242730513 -5.312552996006035 -4.449464024774891
upperback -10.063102664876576 -6.20698021632213 9.499903455279622
thorax -4.807753851750722 -2.3204911721177126 12.426307572089957
lowerneck -2.620867571440783 -11.69441958908016 -9.377667599704429
upperneck 34.958391538363756 -14.231374992875214 -2.769385007114966
head 12.870357779776914 -7.543968225563997 -1.1744252430372304
rclavicle -1.1874146430209711E-14 -1.4854202491541277E-14
rhumerus 31.541425015804094 -5.76429655510038 -10.173279574335425
rradius 24.673605196760587
rwrist 22.15397590531768
rhand 27.77522199871772 -12.528784897993733
rfingers 7.125019999999997
rthumb 51.92093689003565 -34.696138792927385
lclavicle -1.041828558204842E-14 -2.0290460301930914E-14
lhumerus 57.87937745737304 19.44540135102982 30.258448605681576
lradius 21.95741643240543
lwrist -17.05561320145646
lhand -3.6288567659146027 30.6623123167979
lfingers 7.125020000000013
lthumb 22.123049921653863 59.12206280293435
rfemur -68.01683404481156 31.606490892205272 39.058065454599
rtibia 43.919409613348556
rfoot -31.607889102929114 -28.164188367886382
rtoes 42.087007389499234
lfemur -11.225250082567399 -9.465841612411817 -30.851981268965364
ltibia 29.58416557916282
lfoot -18.060969653071652 6.433263839722535
ltoes -8.08797709592112
39
root 0 0 0 10.686592828704615 66.84826846898373 -1.71710643146612
lowerback -8.720904381349314 -5.630509620472306 -4.721626297503593
upperback -10.425295546484842 -6.618928741681942 9.56521166924925
thorax -4.72201578005453 -2.4868219413606365 12.604657600485307
lowerneck -2.6122333837031624 -12.053989572153451 -10.018003135905092
upperneck 34.512972542683 -14.758067211810067 -2.051862170092286
head 12.792187354837122 -7.781423356430123 -0.9180470525388758
rclavicle -1.2766384629735013E-14 -1.2594947844755453E-14
rhumerus 27.409960065546002 -11.392903947932352 -3.053396685654299
rradius 24.99476252276295
rwrist 21.133144103845208
rhand 28.28167233072336 -12.243027169178875
rfingers 7.125019999999992
rthumb 52.40273390354498 -34.31730549999895
lclavicle -1.0716567143830991E-14 -2.0884063267185935E-14
lhumerus 76.3783281155727 19.08723087951651 35.15148814444424
lradius 26.580072185705546
lwrist -10.423581224219937
lhand -7.221601450109646 26.384344829000884
lfingers 7.125020000000012
lthumb 18.648497229384496 54.91320698372623
rfemur -66.43006001930067 32.08407809809299 46.330534281196435
rtibia 44.73782891135926
rfoot -17.2956701843108 -36.502419981915445
rtoes 34.846901584464945
lfemur -10.265693537743218 -9.08189822114437 -30.639955409568294
ltibia 29.865926837569518
lfoot -17.60332308626987 6.0065899640850535
ltoes -8.407260505564656
40
root 0 0 0 11.125620547166825 66.85998059056152 -1.9305320733820608
lowerback -9.107256435094559 -5.7951149624259255 -4.873608754276256
upperback -10.612386106961477 -6.838139589954235 9.60527181715018
thorax -4.654391092911224 -2.5777841063550797 12.712956159908956
lowerneck -2.5998861531510977 -12.244555495713481 -10.361741357623735
upperneck 34.28155923748472 -15.035544545420443 -1.667525942912107
head 12.749814759271418 -7.905918094501757 -0.7796267946549864
rclavicle -1.3517670597133273E-14 -9.490577766941934E-15
rhumerus 25.2285759182722 -16.872648282150635 3.0011119523061254
rradius 25.5543371689289
rwrist 20.887968727632757
rhand 28.380425311873427 -11.768146092090953
rfingers 7.125019999999991
rthumb 52.495977114971936 -33.8295424207118
lclavicle -1.1992181272166534E-14 -2.0215080286788284E-14
lhumerus 91.72392988751781 21.29656843582599 26.983428842857418
lradius 31.917651264500915
lwrist -12.953238214412309
lhand -10.079541821431437 21.1294123994026
lfingers 7.125020000000004
lthumb 15.886548432471333 49.699588759095846
rfemur -66.69408457354197 31.912796258741338 47.29184523837408
rtibia 45.631924038146835
rfoot -13.598482250591822 -38.848315374322056
rtoes 33.26760412147303
lfemur -9.572279061009183 -8.655930989791388 -30.515308485473565
ltibia 30.53683448169707
lfoot -17.10298859714686 5.8023572636925795
ltoes -8.634504851428533
41
root 0 0 0 11.624310549248026 67.13785128878618 -2.2092911029333973
lowerback -9.392783705090261 -5.84802741662876 -4.912187703427366
upperback -10.765515407651232 -6.911915485283387 9.650614845189935
thorax -4.62115056472337 -2.61305165545631 12.772938218505516
lowerneck -2.6053132639922314 -12.399912845201175 -10.55983903621573
upperneck 34.333743883655046 -15.25689364912544 -1.5306718876458296
head 12.794618176675643 -8.008569475124308 -0.7317536524614638
rclavicle -1.0740416388269915E-14 -4.016448527197487E-15
rhumerus 27.53098937134886 -20.34609244400981 7.548523107317493
rradius 27.766922075885542
rwrist 19.97089080595332
rhand 27.892085446561754 -11.179742864576708
rfingers 7.125019999999996
rthumb 52.03147330318754 -33.33950455428827
lclavicle -1.0468122323271323E-14 -1.3294550996634138E-14
lhumerus 86.53920197516372 26.859331705416146 20.889697025863764
lradius 43.145837429067676
lwrist -19.574881201141004
lhand -12.2292169655195 13.214942593202696
lfingers 7.125020000000013
lthumb 13.832134518182869 42.18504871759235
rfemur -70.59477319791904 32.43255503667234 49.13114982676994
rtibia 47.65768735342774
rfoot -14.355390631838727 -38.9793679279348
rtoes 32.833806513367186
lfemur -9.849045260921343 -7.665789528508752 -30.65527479391445
ltibia 33.065394325214264
lfoot -16.35943750325708 5.853112520238705
ltoes -8.83050836815494
42
root 0 0 0 11.90312275052111 67.15645701985451 -2.356385137463315
lowerback -9.50106738443637 -5.841463079341855 -4.878993255025944
upperback -10.851460205479665 -6.899993425796723 9.671015221170554
thorax -4.642294182951613 -2.609890789957439 12.770126883935763
lowerneck -2.6211475953434205 -12.472411928349969 -10.617630916029468
upperneck 34.45410984763842 -15.361401116604782 -1.5345247014823675
head 12.84976758897364 -8.058640452089694 -0.7359142754774124
rclavicle -6.756312675292611E-15 -9.000564070324726E-16
rhumerus 32.688839038909315 -20.701406910500243 8.710067478307721
rradius 30.80692780621104
rwrist 18.258621349029397
rhand 27.27232117446201 -10.812022472380947
rfingers 7.125020000000002
rthumb 51.44083094398131 -33.08268438088196
lclavicle -8.085533028481521E-15 -8.93466614181125E-15
lhumerus 78.01070115344963 28.06864642873838 20.7232283216845
lradius 49.58493664997441
lwrist -21.35773985377711
lhand -12.015375715387972 10.32245424135744
lfingers 7.125020000000027
lthumb 14.043617051083448 39.434487016052536
rfemur -71.84669232660892 31.979522283452013 49.46357184562406
rtibia 48.776804939464526
rfoot -14.930516863764087 -38.82840361280938
rtoes 32.568262176963245
lfemur -11.578177661331189 -6.664758138532603 -30.936636785506582
ltibia 35.75924464209764
lfoot -16.347481757696425 6.1429601122780255
ltoes -8.474440030400642
43
root 0 0 0 12.058373237533463 67.05903291099347 -2.4324891673723092
lowerback -9.545447559713347 -5.832114798722753 -4.8409396856375135
upperback -10.907129540083888 -6.883005732154228 9.681116820987475
thorax -4.674548438074861 -2.603106800850263 12.755003429935591
lowerneck -2.6317514856312165 -12.509507596976214 -10.639292412213473
upperneck 34.54727234612382 -15.416791622940037 -1.550296013741086
head 12.890064170365799 -8.085574649170463 -0.7440755266916301
rclavicle -2.9634032523734507E-15 5.161452628873971E-16
rhumerus 39.076586927307694 -20.481439402328558 9.753834472976173
rradius 34.630656683960396
rwrist 16.350121281890424
rhand 26.524222589965945 -10.465323579665037
rfingers 7.125020000000009
rthumb 50.72968684229331 -32.87826001075458
lclavicle -5.3620908557931825E-15 -7.261332802616144E-15
lhumerus 73.44209635168244 27.69197874864098 20.13476184503546
lradius 51.930650876372326
lwrist -21.61376073622673
lhand -11.837310919761364 9.434973264268868
lfingers 7.125020000000034
lthumb 14.208123032789851 38.52704076830666
rfemur -71.85506761164342 31.054071259126317 49.16399828913306
rtibia 49.515945444761066
rfoot -15.159089705119431 -38.59333030621983
rtoes 32.131495928844515
lfemur -14.460070184423046 -5.48064132151293 -31.28713541148272
ltibia 38.818309489490844
lfoot -16.70184309963051 6.6666227416844315
ltoes -7.913430618963778
44
root 0 0 0 12.116096573450262 66.9632788410136 -2.4664227035637767
lowerback -9.554236374036542 -5.826263503923416 -4.813962535310787
upperback -10.931129264384333 -6.872369334693122 9.68607769614894
thorax -4.695897269089917 -2.598652930449685 12.742979811173132
lowerneck -2.6344944501748397 -12.521270410019866 -10.640646052999863
upperneck 34.59850765778938 -15.436083247142472 -1.5625246858624475
head 12.910993060725849 -8.094996824752785 -0.7500620796974786
rclavicle -9.374453043335002E-16 8.739401129628522E-16
rhumerus 44.990654082988364 -20.088608956101126 10.790485385803954
rradius 38.33706187993378
rwrist 14.750336356334824
rhand 25.805993716056072 -10.17364606360165
rfingers 7.125020000000015
rthumb 50.04757928131115 -32.73069536099405
lclavicle -3.715276444170992E-15 -6.799666183306018E-15
lhumerus 71.49823785202908 27.222349172589347 19.588430571926644
lradius 52.79477534218118
lwrist -21.151473251137496
lhand -11.31705923228886 9.226564802291108
lfingers 7.1250200000000365
lthumb 14.70046613153325 38.22470267166755
rfemur -71.3966404481854 30.09108066913953 48.67438601399111
rtibia 49.889199297179786
rfoot -15.480180462988809 -38.312664153331085
rtoes 31.55104994649197
lfemur -17.73396334465724 -4.331840376375707 -31.79033051605667
ltibia 42.13853218355072
lfoot -16.85682079098617 7.204662329769128
ltoes -7.9044034819828735
45
root 0 0 0 12.140319332716738 66.84011154078055 -2.4924720901193327
lowerback -9.548759913503272 -5.819960933152009 -4.783722573527221
upperback -10.944667715713894 -6.861681968046078 9.691290222688131
thorax -4.715779369499228 -2.5940787237023004 12.730206211663383
lowerneck -2.631021093619667 -12.52312834002857 -10.631242720259397
upperneck 34.641990536784526 -15.442116191544883 -1.5756539574373107
head 12.926795087323733 -8.097915848873638 -0.7563391510032338
rclavicle 6.226183141523628E-16 9.80587570255121E-16
rhumerus 52.658431335715484 -19.529136319555015 12.14821830222153
rradius 43.176164725724874
rwrist 12.78401448919849
rhand 24.85058147454063 -9.871609706088135
rfingers 7.125020000000022
rthumb 49.141855265266386 -32.63287719702576
lclavicle -2.1726380174471496E-15 -6.783603087601624E-15
lhumerus 70.57029328072115 27.01639775301617 19.150517237560535
lradius 53.267049033644156
lwrist -19.867069645169032
lhand -9.757954297361904 9.174674782172612
lfingers 7.125020000000037
lthumb 16.18778419848997 37.948691267620575
rfemur -70.57448612142696 28.899343091303564 47.97677207900202
rtibia 50.017592115058896
rfoot -16.239847981439546 -37.89511452507367
rtoes 30.79144058387273
lfemur -22.958761398486676 -2.635609021361619 -32.81633380373021
ltibia 47.791567154240724
lfoot -16.315585127453033 7.78229990040848
ltoes -9.018254787038087
